<svg width="207" height="30" viewBox="0 0 207 30" fill="none" xmlns="http://www.w3.org/2000/svg">
<path fill-rule="evenodd" clip-rule="evenodd" d="M16.6481 26.6344C9.40945 26.6344 3.2308 20.8921 3.2308 14.6286C3.2308 8.38834 9.28013 2.53187 16.5961 2.53187C21.4053 2.53187 24.8682 4.56685 27.6867 7.75513H31.2281C30.1681 6.08172 29.0308 4.54461 27.2988 3.34586C24.3255 1.24322 20.4735 0 16.6481 0C7.47074 0 0 6.62502 0 14.6064C0 22.6099 7.57464 29.1673 16.7 29.1673C20.4227 29.1673 24.068 27.9695 26.9893 25.9568C28.8252 24.6681 30.1173 22.9947 31.3586 21.2758H27.8172C25.0241 24.4641 21.4573 26.6344 16.6481 26.6344ZM53.3574 11.3726C51.1346 8.863 48.1094 7.28046 44.3614 7.28046C37.64 7.28046 32.108 12.0523 32.108 17.931C32.108 23.8087 37.6665 28.6249 44.3614 28.6249C48.2653 28.6249 50.9788 27.2 53.3574 24.5772V28.1493H56.2787V7.77736H53.3574V11.3726ZM44.2066 26.2729C39.0614 26.2729 35.0027 22.3615 35.0027 17.9532C35.0027 13.5662 39.036 9.63252 44.2066 9.63252C49.3507 9.63252 53.3574 13.5671 53.3574 17.9532C53.3574 22.3615 49.3242 26.2729 44.2066 26.2729ZM59.8201 28.1493H62.9492V0.586809H59.8201V28.1493ZM74.7627 24.9156L66.8521 7.77736H63.7495L73.2374 28.1493H76.3908L85.8533 7.77736H82.8027L74.7627 24.9156ZM87.1454 28.1493H90.2734V7.77736H87.1454V28.1493ZM87.1454 5.15462H90.2734V0.586809H87.1454V5.15462ZM103.743 7.27949C100.795 7.27949 98.7014 8.63679 96.7627 10.4455V7.77736H93.8668V28.1493H96.9428V15.7355C96.9174 12.4573 100.019 9.63155 103.794 9.63155C108.523 9.63155 110.902 13.2268 110.902 16.9352V28.1503H113.797V16.9352C113.798 11.6443 110.257 7.27949 103.743 7.27949ZM142.829 0.586809L128.611 16.3919V0.586809H125.535V28.1493H128.611V20.575L132.644 16.1889L142.907 28.1493H146.812L134.608 14.0176L146.812 0.586809H142.829ZM147.948 28.1493H151V0.586809H147.948V28.1493ZM176.256 12.9097C174.136 9.44981 169.896 7.27949 165.423 7.27949C158.755 7.27949 153.118 12.1412 153.118 17.9745C153.118 23.8522 158.806 28.624 165.477 28.624C168.655 28.624 171.785 27.5161 174.084 25.5942C175.481 24.4409 176.308 22.9937 177.056 21.4789H173.775C172.119 24.3056 169.198 26.2719 165.422 26.2719C163.123 26.2719 160.874 25.4579 159.168 24.0784C157.408 22.6776 156.634 20.9578 156.297 18.9238H177.781C177.783 16.7989 177.445 14.7639 176.256 12.9097ZM156.402 16.5727C157.334 12.7522 160.771 9.63155 165.477 9.63155C169.432 9.63155 173.672 11.7574 174.603 16.5727H156.402ZM180.057 28.1493H183.132V7.77736H180.057V28.1493ZM180.057 5.24549H183.132V0.586809H180.057V5.24549ZM196.654 7.27949C193.654 7.27949 191.56 8.63679 189.595 10.4455V7.77736H186.648V28.1493H189.751V15.7355C189.725 12.4351 192.905 9.63155 196.704 9.63155C201.411 9.63155 203.893 13.2268 203.893 16.9352V28.1503H206.788V16.9352C206.788 11.6443 203.193 7.27949 196.654 7.27949Z" fill="white"/>
</svg>
