<svg width="195" height="32" viewBox="0 0 195 32" fill="none" xmlns="http://www.w3.org/2000/svg">
<g clip-path="url(#clip0_9_9245)">
<path fill-rule="evenodd" clip-rule="evenodd" d="M0.481689 0.901628L3.41386 4.20836V28.4105L1.24066 31.5772L14.5501 31.5977L12.1512 28.6837L11.9021 19.9677L24.7353 20.0374C28.6251 18.7424 32.6238 15.9813 32.8159 10.3995C32.7545 4.9902 29.452 1.52074 25.6177 0.830483L0.481689 0.901628ZM11.4265 2.44941V17.9976L21.2728 18.0688C23.5131 16.2621 25.2115 14.8786 25.1436 10.541C25.1115 7.0042 24.3649 3.91999 21.0689 2.45017L11.4265 2.44941ZM38.9753 0.72528L41.9075 4.03276V28.2349L39.7343 31.4032L53.043 31.4221L50.6441 28.5082L50.395 19.7921H50.4483L64.1982 31.5205L75.6091 31.4274L65.1946 22.4192H56.5004L53.436 19.8088L63.2282 19.8618C67.118 18.5668 71.1159 15.8057 71.3088 10.2239C71.2482 4.81536 67.9456 1.34515 64.1106 0.655648L38.9753 0.72528ZM49.9194 2.27306V17.8213L59.7657 17.8924C62.0068 16.0858 63.7044 14.7022 63.6365 10.3639C63.6044 6.82785 62.8578 3.74289 59.5619 2.27306H49.9194ZM86.5949 0.690464H98.0708L113.009 28.4105C113.656 30.5509 115.589 30.2868 116.88 31.2253H102.416L104.59 30.5456L104.454 28.4817L100.719 22.5009L88.0208 22.5721L85.3049 28.3416C85.2143 28.9978 84.5123 29.4959 85.0331 30.311L86.0522 31.2957L79.805 31.1549L82.5217 30.311L92.7741 8.71168V7.23353L88.4423 1.45489L86.5949 0.690464ZM88.8236 20.5974L94.0977 10.6122L99.5888 20.5414L88.8236 20.5974ZM164.197 0.751013H175.672L190.611 28.4711C191.257 30.6115 193.191 30.3473 194.482 31.2858H180.017L182.191 30.6047L182.055 28.5407L178.32 22.5615L165.622 22.6326L162.906 28.4007C162.815 29.0584 162.114 29.5564 162.634 30.3715L163.653 31.3562L157.407 31.2155L160.123 30.3715L170.376 8.77223V7.29332L166.044 1.51544L164.197 0.751013ZM166.425 20.6587L171.699 10.6735L177.191 20.6012L166.425 20.6587ZM120.849 0.4021L141.292 0.514872C147.875 2.0566 152.064 6.07856 153.363 13.0947L153.308 18.5668C152.108 24.8185 148.175 29.1318 141.238 31.3154L120.74 31.3729L120.737 30.7106C123.853 30.4752 124.102 30.1195 124.11 28.2697V3.33494C124.075 1.96729 123.802 1.11582 120.794 1.02197L120.849 0.4021ZM132.469 2.53569L132.45 29.5133C135.146 29.5224 137.485 29.7751 138.806 29.1008C141.801 27.7331 143.191 25.6328 143.319 23.6597L143.247 7.73003C143.248 5.18168 140.482 3.38262 138.885 2.91412C137.743 2.49104 135.465 2.47363 132.469 2.53569Z" fill="white" stroke="white" stroke-width="1.02419" stroke-miterlimit="2.613"/>
</g>
<defs>
<clipPath id="clip0_9_9245">
<rect width="194" height="32" fill="white" transform="translate(0.481689)"/>
</clipPath>
</defs>
</svg>
