<svg width="167" height="29" viewBox="0 0 167 29" fill="none" xmlns="http://www.w3.org/2000/svg">
<path fill-rule="evenodd" clip-rule="evenodd" d="M150.179 0.573457H166.482V2.84549C166.008 2.70642 165.512 2.63473 165.013 2.63317H155.642V13.2499H164.758C165.413 13.2499 165.996 13.187 166.481 13.0799V15.342C166.068 15.2573 165.499 15.2143 164.794 15.2143H155.642V26.1922H164.733C165.232 26.1922 165.826 26.1287 166.481 25.9905V28.4325H150.203C150.333 28.003 150.399 27.5605 150.398 27.1162V1.92148C150.398 1.36982 150.325 0.913421 150.179 0.573457ZM146.405 7.80362L141.695 7.77249C141.464 5.45749 139.947 3.21659 136.609 2.80377C129.459 2.2409 127.444 9.10931 127.626 14.1316C127.809 18.9726 128.694 26.4151 136.075 26.4151C139.171 26.4151 142.144 23.6331 142.047 21.287L146.405 21.2559C146.089 26.097 139.741 28.8995 136.718 28.9954C126.389 29.3036 122.066 23.2832 121.848 14.6932C121.654 6.91261 125.296 0 135.504 0C144.244 0.106472 145.931 4.62937 146.405 7.80362ZM72.9408 25.2682L76.0611 22.9856C77.687 25.3323 79.0225 26.4039 82.2517 26.4039C85.5286 26.4039 88.285 24.663 88.285 21.5846C88.285 20.066 87.5802 18.8238 86.1849 17.8899C85.5528 17.454 83.951 16.7006 81.4259 15.6496C77.6507 14.0681 73.9731 12.0077 73.9731 7.86775C73.9731 2.64375 79.0467 0.339965 84.3995 0.16936C87.5681 0.0635099 91.5014 1.59335 93.091 3.31248L89.9231 5.44628C89.3581 4.52407 88.5181 3.75289 87.4923 3.21462C86.4665 2.67635 85.2932 2.39108 84.0969 2.38909C80.0541 2.38909 76.8498 6.48735 80.2 9.31167C81.0493 10.0333 82.7863 10.9249 85.4324 11.9866C89.6561 13.7175 93.2612 15.7872 93.2612 20.3636C93.2612 21.9452 92.7878 23.4208 91.853 24.7695C89.9722 27.4873 86.8278 28.8466 82.4339 28.8466C77.3838 28.8466 76.3892 27.8379 72.9408 25.2682ZM28.4893 0.573457H44.7782V2.84549C44.3051 2.70648 43.8094 2.63479 43.3103 2.63317H33.9396V13.2499H43.0554C43.7111 13.2499 44.2941 13.187 44.7789 13.0799V15.342C44.366 15.2573 43.7958 15.2143 43.1046 15.2143H33.9396V26.1922H43.0312C43.5289 26.1922 44.124 26.1287 44.7789 25.9905V28.4325H28.5143C28.6332 28.0014 28.6941 27.5597 28.6958 27.1162V1.92148C28.6958 1.36982 28.6225 0.913421 28.4893 0.573457ZM0 0.573457H5.92368V0.828742C5.92368 1.06223 6.0084 1.36982 6.15434 1.76271L14.5049 23.7502L23.0754 1.66682C23.2085 1.29573 23.2818 0.934591 23.2818 0.573457H26.1586C25.8674 1.01927 25.6489 1.41278 25.515 1.76271L15.7308 27.2968C15.6339 27.5409 15.5492 27.9232 15.4766 28.4331H10.6208C10.5474 28.0471 10.4379 27.6671 10.2933 27.2968L0.704065 1.96445C0.482555 1.49725 0.251627 1.03352 0.0113903 0.573457H0ZM62.9145 15.0979C66.7986 14.4286 69.7729 11.8278 69.7729 8.11183C69.7729 3.23776 65.1114 0.572834 59.8918 0.572834H50.3509C50.4841 0.998101 50.5574 1.44392 50.5574 1.9109V27.0938C50.5574 27.6355 50.4841 28.0919 50.3509 28.4319H56.0319C55.8929 27.9963 55.8235 27.546 55.8254 27.0938V15.5226L57.6457 15.6925L67.1631 28.4319H72.8803L62.9145 15.0979ZM61.9314 12.9747C60.8998 13.611 59.6611 13.9292 58.2409 13.9292H55.8133V2.60266H57.986C59.8441 2.60266 61.2878 3.00551 62.32 3.81184C63.7282 4.92762 64.4443 6.43504 64.4443 8.32477C64.4443 10.3633 63.6064 11.9137 61.9314 12.9753M120.901 27.2756L110.293 1.49746C110.175 1.19941 110.105 0.888384 110.086 0.573457H105.497C105.497 0.902836 105.436 1.25276 105.29 1.60331L95.0096 27.2756C94.875 27.6461 94.6572 28.029 94.366 28.4325H97.3275C97.3161 28.0079 97.3766 27.615 97.5105 27.2756L100.556 19.7049H112.27L115.281 27.2762C115.439 27.6891 115.511 28.0714 115.511 28.4325H121.654C121.301 27.9973 121.047 27.6044 120.901 27.2756ZM101.358 17.6557L106.31 5.07519L111.397 17.6557H101.358Z" fill="white"/>
</svg>
