<svg xmlns="http://www.w3.org/2000/svg" xmlns:xlink="http://www.w3.org/1999/xlink" width="1080" zoomAndPan="magnify" viewBox="0 0 810 809.999993" height="1080" preserveAspectRatio="xMidYMid meet" version="1.0"><defs><clipPath id="cae7f91909"><path d="M 226.800781 226.800781 L 583.050781 226.800781 L 583.050781 583.050781 L 226.800781 583.050781 Z M 226.800781 226.800781 " clip-rule="nonzero"/></clipPath></defs><g clip-path="url(#cae7f91909)"><path fill="#000000" d="M 392.015625 404.925781 L 230.0625 404.925781 C 228.261719 404.925781 226.800781 406.386719 226.800781 408.1875 L 226.800781 575.007812 C 226.800781 577.933594 230.363281 579.378906 232.402344 577.277344 L 394.355469 410.460938 C 396.363281 408.390625 394.898438 404.925781 392.015625 404.925781 Z M 397.046875 226.800781 L 230.0625 226.800781 C 228.261719 226.800781 226.800781 228.261719 226.800781 230.0625 L 226.800781 397.046875 C 226.800781 399.957031 230.316406 401.410156 232.371094 399.351562 L 399.355469 232.371094 C 401.410156 230.316406 399.953125 226.800781 397.046875 226.800781 Z M 583.050781 234.675781 L 583.050781 579.785156 C 583.050781 581.589844 581.589844 583.050781 579.785156 583.050781 L 412.640625 583.050781 C 409.753906 583.050781 408.292969 579.582031 410.300781 577.515625 L 572.480469 410.460938 C 574.488281 408.390625 573.023438 404.925781 570.140625 404.925781 L 412.800781 404.925781 C 409.894531 404.925781 408.441406 401.410156 410.496094 399.351562 L 577.476562 232.371094 C 579.535156 230.316406 583.050781 231.769531 583.050781 234.675781 " fill-opacity="1" fill-rule="nonzero"/></g></svg>